<mxfile host="app.diagrams.net" modified="2021-03-11T08:10:53.286Z" agent="5.0 (Windows NT 10.0; Win64; x64) AppleWebKit/537.36 (KHTML, like Gecko) Chrome/88.0.4324.182 Safari/537.36 Edg/88.0.705.81" etag="40gS6jrTrtg7_IVxOiM1" version="14.4.5" type="github">
  <diagram name="Page-1" id="edf60f1a-56cd-e834-aa8a-f176f3a09ee4">
    <mxGraphModel dx="5443" dy="2573" grid="1" gridSize="10" guides="1" tooltips="1" connect="1" arrows="1" fold="1" page="1" pageScale="1" pageWidth="1100" pageHeight="850" math="0" shadow="0">
      <root>
        <mxCell id="0" />
        <mxCell id="1" parent="0" />
        <mxCell id="r0wQkKcDz_AkUR-mDeuy-58" style="edgeStyle=orthogonalEdgeStyle;curved=0;rounded=1;sketch=0;orthogonalLoop=1;jettySize=auto;html=1;exitX=0.5;exitY=1;exitDx=0;exitDy=0;" edge="1" parent="1" source="60e70716793133e9-4" target="r0wQkKcDz_AkUR-mDeuy-57">
          <mxGeometry relative="1" as="geometry" />
        </mxCell>
        <mxCell id="60e70716793133e9-4" value="&lt;span style=&quot;font-family: &amp;#34;helvetica&amp;#34; ; font-size: 12px&quot;&gt;Special Pricing&lt;/span&gt;" style="rounded=0;whiteSpace=wrap;html=1;shadow=1;labelBackgroundColor=none;strokeWidth=1;fontFamily=Verdana;fontSize=8;align=center;" parent="1" vertex="1">
          <mxGeometry x="980" y="190" width="120" height="60" as="geometry" />
        </mxCell>
        <mxCell id="r0wQkKcDz_AkUR-mDeuy-10" style="edgeStyle=orthogonalEdgeStyle;curved=0;rounded=1;sketch=0;orthogonalLoop=1;jettySize=auto;html=1;exitX=1;exitY=0.5;exitDx=0;exitDy=0;entryX=0.5;entryY=0;entryDx=0;entryDy=0;" edge="1" parent="1" source="60e70716793133e9-5" target="r0wQkKcDz_AkUR-mDeuy-15">
          <mxGeometry relative="1" as="geometry">
            <mxPoint x="450" y="440" as="targetPoint" />
            <Array as="points">
              <mxPoint x="570" y="320" />
              <mxPoint x="570" y="670" />
              <mxPoint x="-550" y="670" />
            </Array>
          </mxGeometry>
        </mxCell>
        <mxCell id="r0wQkKcDz_AkUR-mDeuy-11" value="No Bundle" style="edgeLabel;html=1;align=center;verticalAlign=middle;resizable=0;points=[];" vertex="1" connectable="0" parent="r0wQkKcDz_AkUR-mDeuy-10">
          <mxGeometry x="-0.16" relative="1" as="geometry">
            <mxPoint x="-535" as="offset" />
          </mxGeometry>
        </mxCell>
        <mxCell id="r0wQkKcDz_AkUR-mDeuy-12" style="edgeStyle=orthogonalEdgeStyle;curved=0;rounded=1;sketch=0;orthogonalLoop=1;jettySize=auto;html=1;exitX=0;exitY=0.5;exitDx=0;exitDy=0;entryX=0.5;entryY=0;entryDx=0;entryDy=0;" edge="1" parent="1" source="60e70716793133e9-5" target="r0wQkKcDz_AkUR-mDeuy-14">
          <mxGeometry relative="1" as="geometry">
            <mxPoint x="80" y="430" as="targetPoint" />
          </mxGeometry>
        </mxCell>
        <mxCell id="r0wQkKcDz_AkUR-mDeuy-13" value="Bundle" style="edgeLabel;html=1;align=center;verticalAlign=middle;resizable=0;points=[];" vertex="1" connectable="0" parent="r0wQkKcDz_AkUR-mDeuy-12">
          <mxGeometry x="0.152" y="4" relative="1" as="geometry">
            <mxPoint x="211" y="-4" as="offset" />
          </mxGeometry>
        </mxCell>
        <mxCell id="60e70716793133e9-5" value="Bundle | No Bundle" style="rhombus;whiteSpace=wrap;html=1;rounded=0;shadow=1;labelBackgroundColor=none;strokeWidth=1;fontFamily=Verdana;fontSize=8;align=center;" parent="1" vertex="1">
          <mxGeometry x="230" y="290" width="100" height="60" as="geometry" />
        </mxCell>
        <mxCell id="60e70716793133e9-30" value="End" style="strokeWidth=1;html=1;shape=mxgraph.flowchart.terminator;whiteSpace=wrap;rounded=0;shadow=1;labelBackgroundColor=none;fontFamily=Verdana;fontSize=8;align=center;" parent="1" vertex="1">
          <mxGeometry x="480" y="425" width="60" height="30" as="geometry" />
        </mxCell>
        <mxCell id="r0wQkKcDz_AkUR-mDeuy-1" value="Contracts DOA" style="text;html=1;resizable=0;autosize=1;align=center;verticalAlign=middle;points=[];fillColor=none;strokeColor=none;rounded=0;sketch=0;" vertex="1" parent="1">
          <mxGeometry x="450" y="30" width="100" height="20" as="geometry" />
        </mxCell>
        <mxCell id="r0wQkKcDz_AkUR-mDeuy-7" style="edgeStyle=orthogonalEdgeStyle;curved=0;rounded=1;sketch=0;orthogonalLoop=1;jettySize=auto;html=1;exitX=0.5;exitY=1;exitDx=0;exitDy=0;entryX=0;entryY=0.5;entryDx=0;entryDy=0;" edge="1" parent="1" source="r0wQkKcDz_AkUR-mDeuy-2" target="60e70716793133e9-4">
          <mxGeometry relative="1" as="geometry" />
        </mxCell>
        <mxCell id="r0wQkKcDz_AkUR-mDeuy-2" value="Contracts DOA" style="shape=process;whiteSpace=wrap;html=1;backgroundOutline=1;rounded=0;sketch=0;" vertex="1" parent="1">
          <mxGeometry x="460" y="70" width="120" height="60" as="geometry" />
        </mxCell>
        <mxCell id="r0wQkKcDz_AkUR-mDeuy-8" style="edgeStyle=orthogonalEdgeStyle;curved=0;rounded=1;sketch=0;orthogonalLoop=1;jettySize=auto;html=1;exitX=0.5;exitY=1;exitDx=0;exitDy=0;entryX=0.5;entryY=0;entryDx=0;entryDy=0;" edge="1" parent="1" source="r0wQkKcDz_AkUR-mDeuy-5" target="60e70716793133e9-5">
          <mxGeometry relative="1" as="geometry" />
        </mxCell>
        <mxCell id="r0wQkKcDz_AkUR-mDeuy-5" value="Discount Form |,Contract Pricing" style="rounded=0;whiteSpace=wrap;html=1;sketch=0;" vertex="1" parent="1">
          <mxGeometry x="220" y="180" width="120" height="60" as="geometry" />
        </mxCell>
        <mxCell id="r0wQkKcDz_AkUR-mDeuy-6" style="edgeStyle=orthogonalEdgeStyle;curved=0;rounded=1;sketch=0;orthogonalLoop=1;jettySize=auto;html=1;exitX=0.5;exitY=1;exitDx=0;exitDy=0;entryX=1;entryY=0.5;entryDx=0;entryDy=0;" edge="1" parent="1" source="r0wQkKcDz_AkUR-mDeuy-2" target="r0wQkKcDz_AkUR-mDeuy-5">
          <mxGeometry relative="1" as="geometry">
            <mxPoint x="520" y="130" as="sourcePoint" />
            <mxPoint x="260" y="225" as="targetPoint" />
            <Array as="points">
              <mxPoint x="520" y="210" />
            </Array>
          </mxGeometry>
        </mxCell>
        <mxCell id="r0wQkKcDz_AkUR-mDeuy-22" style="edgeStyle=orthogonalEdgeStyle;curved=0;rounded=1;sketch=0;orthogonalLoop=1;jettySize=auto;html=1;entryX=0;entryY=0.5;entryDx=0;entryDy=0;" edge="1" parent="1" source="r0wQkKcDz_AkUR-mDeuy-14" target="r0wQkKcDz_AkUR-mDeuy-16">
          <mxGeometry relative="1" as="geometry" />
        </mxCell>
        <mxCell id="r0wQkKcDz_AkUR-mDeuy-14" value="Total Margin of Contract Products" style="rounded=1;whiteSpace=wrap;html=1;sketch=0;" vertex="1" parent="1">
          <mxGeometry x="-610" y="410" width="120" height="60" as="geometry" />
        </mxCell>
        <mxCell id="r0wQkKcDz_AkUR-mDeuy-56" style="edgeStyle=orthogonalEdgeStyle;curved=0;rounded=1;sketch=0;orthogonalLoop=1;jettySize=auto;html=1;exitX=1;exitY=0.5;exitDx=0;exitDy=0;" edge="1" parent="1" source="r0wQkKcDz_AkUR-mDeuy-15" target="r0wQkKcDz_AkUR-mDeuy-41">
          <mxGeometry relative="1" as="geometry" />
        </mxCell>
        <mxCell id="r0wQkKcDz_AkUR-mDeuy-15" value="&lt;table border=&quot;0&quot; cellpadding=&quot;0&quot; cellspacing=&quot;0&quot; width=&quot;169&quot; style=&quot;border-collapse: collapse ; width: 127pt&quot;&gt;&lt;tbody&gt;&lt;tr style=&quot;height: 15.0pt&quot;&gt;&lt;br/&gt;  &lt;td height=&quot;20&quot; width=&quot;169&quot; style=&quot;height: 15.0pt ; width: 127pt&quot;&gt;Least Margin of&lt;br/&gt;  among&amp;nbsp; products&lt;/td&gt;&lt;/tr&gt;&lt;/tbody&gt;&lt;/table&gt;" style="rounded=1;whiteSpace=wrap;html=1;sketch=0;align=center;" vertex="1" parent="1">
          <mxGeometry x="-610" y="730" width="120" height="60" as="geometry" />
        </mxCell>
        <mxCell id="r0wQkKcDz_AkUR-mDeuy-23" style="edgeStyle=orthogonalEdgeStyle;curved=0;rounded=1;sketch=0;orthogonalLoop=1;jettySize=auto;html=1;exitX=1;exitY=0.5;exitDx=0;exitDy=0;entryX=0;entryY=0.5;entryDx=0;entryDy=0;" edge="1" parent="1" source="r0wQkKcDz_AkUR-mDeuy-16" target="r0wQkKcDz_AkUR-mDeuy-17">
          <mxGeometry relative="1" as="geometry" />
        </mxCell>
        <mxCell id="r0wQkKcDz_AkUR-mDeuy-16" value="&lt;font style=&quot;font-size: 10px&quot;&gt;&amp;nbsp; &amp;nbsp; Channel Support&amp;nbsp; &amp;nbsp; &amp;nbsp;Manager Approval&lt;/font&gt;" style="shape=step;perimeter=stepPerimeter;whiteSpace=wrap;html=1;fixedSize=1;rounded=0;sketch=0;" vertex="1" parent="1">
          <mxGeometry x="-450" y="400" width="120" height="80" as="geometry" />
        </mxCell>
        <mxCell id="r0wQkKcDz_AkUR-mDeuy-24" style="edgeStyle=orthogonalEdgeStyle;curved=0;rounded=1;sketch=0;orthogonalLoop=1;jettySize=auto;html=1;exitX=1;exitY=0.5;exitDx=0;exitDy=0;" edge="1" parent="1" source="r0wQkKcDz_AkUR-mDeuy-17" target="r0wQkKcDz_AkUR-mDeuy-18">
          <mxGeometry relative="1" as="geometry" />
        </mxCell>
        <mxCell id="r0wQkKcDz_AkUR-mDeuy-17" value="Regional Manager Approval" style="shape=step;perimeter=stepPerimeter;whiteSpace=wrap;html=1;fixedSize=1;rounded=0;sketch=0;" vertex="1" parent="1">
          <mxGeometry x="-320" y="400" width="130" height="80" as="geometry" />
        </mxCell>
        <mxCell id="r0wQkKcDz_AkUR-mDeuy-25" style="edgeStyle=orthogonalEdgeStyle;curved=0;rounded=1;sketch=0;orthogonalLoop=1;jettySize=auto;html=1;exitX=1;exitY=0.5;exitDx=0;exitDy=0;entryX=0;entryY=0.5;entryDx=0;entryDy=0;" edge="1" parent="1" source="r0wQkKcDz_AkUR-mDeuy-18" target="r0wQkKcDz_AkUR-mDeuy-19">
          <mxGeometry relative="1" as="geometry" />
        </mxCell>
        <mxCell id="r0wQkKcDz_AkUR-mDeuy-18" value="&amp;nbsp; &amp;nbsp; &amp;nbsp;Level 1" style="shape=step;perimeter=stepPerimeter;whiteSpace=wrap;html=1;fixedSize=1;rounded=0;sketch=0;" vertex="1" parent="1">
          <mxGeometry x="-180" y="400" width="130" height="80" as="geometry" />
        </mxCell>
        <mxCell id="r0wQkKcDz_AkUR-mDeuy-26" style="edgeStyle=orthogonalEdgeStyle;curved=0;rounded=1;sketch=0;orthogonalLoop=1;jettySize=auto;html=1;exitX=1;exitY=0.5;exitDx=0;exitDy=0;" edge="1" parent="1" source="r0wQkKcDz_AkUR-mDeuy-19" target="r0wQkKcDz_AkUR-mDeuy-20">
          <mxGeometry relative="1" as="geometry" />
        </mxCell>
        <mxCell id="r0wQkKcDz_AkUR-mDeuy-19" value="&amp;nbsp; &amp;nbsp; &amp;nbsp;Level 2" style="shape=step;perimeter=stepPerimeter;whiteSpace=wrap;html=1;fixedSize=1;rounded=0;sketch=0;" vertex="1" parent="1">
          <mxGeometry x="-30" y="400" width="130" height="80" as="geometry" />
        </mxCell>
        <mxCell id="r0wQkKcDz_AkUR-mDeuy-27" style="edgeStyle=orthogonalEdgeStyle;curved=0;rounded=1;sketch=0;orthogonalLoop=1;jettySize=auto;html=1;exitX=1;exitY=0.5;exitDx=0;exitDy=0;" edge="1" parent="1" source="r0wQkKcDz_AkUR-mDeuy-20" target="r0wQkKcDz_AkUR-mDeuy-21">
          <mxGeometry relative="1" as="geometry" />
        </mxCell>
        <mxCell id="r0wQkKcDz_AkUR-mDeuy-20" value="&amp;nbsp; &amp;nbsp; &amp;nbsp;Level 3" style="shape=step;perimeter=stepPerimeter;whiteSpace=wrap;html=1;fixedSize=1;rounded=0;sketch=0;" vertex="1" parent="1">
          <mxGeometry x="110" y="400" width="130" height="80" as="geometry" />
        </mxCell>
        <mxCell id="r0wQkKcDz_AkUR-mDeuy-28" style="edgeStyle=orthogonalEdgeStyle;curved=0;rounded=1;sketch=0;orthogonalLoop=1;jettySize=auto;html=1;exitX=1;exitY=0.5;exitDx=0;exitDy=0;entryX=0;entryY=0.5;entryDx=0;entryDy=0;entryPerimeter=0;" edge="1" parent="1" source="r0wQkKcDz_AkUR-mDeuy-21" target="60e70716793133e9-30">
          <mxGeometry relative="1" as="geometry" />
        </mxCell>
        <mxCell id="r0wQkKcDz_AkUR-mDeuy-21" value="&amp;nbsp; &amp;nbsp; &amp;nbsp;Level 4&lt;br&gt;&amp;nbsp; &amp;nbsp;FN &amp;amp; GM" style="shape=step;perimeter=stepPerimeter;whiteSpace=wrap;html=1;fixedSize=1;rounded=0;sketch=0;" vertex="1" parent="1">
          <mxGeometry x="260" y="400" width="130" height="80" as="geometry" />
        </mxCell>
        <mxCell id="r0wQkKcDz_AkUR-mDeuy-39" value="End" style="strokeWidth=1;html=1;shape=mxgraph.flowchart.terminator;whiteSpace=wrap;rounded=0;shadow=1;labelBackgroundColor=none;fontFamily=Verdana;fontSize=8;align=center;" vertex="1" parent="1">
          <mxGeometry x="460" y="745" width="60" height="30" as="geometry" />
        </mxCell>
        <mxCell id="r0wQkKcDz_AkUR-mDeuy-40" style="edgeStyle=orthogonalEdgeStyle;curved=0;rounded=1;sketch=0;orthogonalLoop=1;jettySize=auto;html=1;exitX=1;exitY=0.5;exitDx=0;exitDy=0;entryX=0;entryY=0.5;entryDx=0;entryDy=0;" edge="1" parent="1" source="r0wQkKcDz_AkUR-mDeuy-41" target="r0wQkKcDz_AkUR-mDeuy-43">
          <mxGeometry relative="1" as="geometry" />
        </mxCell>
        <mxCell id="r0wQkKcDz_AkUR-mDeuy-41" value="&lt;font style=&quot;font-size: 10px&quot;&gt;&amp;nbsp; &amp;nbsp; Channel Support&amp;nbsp; &amp;nbsp; &amp;nbsp;Manager Approval&lt;/font&gt;" style="shape=step;perimeter=stepPerimeter;whiteSpace=wrap;html=1;fixedSize=1;rounded=0;sketch=0;" vertex="1" parent="1">
          <mxGeometry x="-460" y="720" width="120" height="80" as="geometry" />
        </mxCell>
        <mxCell id="r0wQkKcDz_AkUR-mDeuy-42" style="edgeStyle=orthogonalEdgeStyle;curved=0;rounded=1;sketch=0;orthogonalLoop=1;jettySize=auto;html=1;exitX=1;exitY=0.5;exitDx=0;exitDy=0;" edge="1" parent="1" source="r0wQkKcDz_AkUR-mDeuy-43" target="r0wQkKcDz_AkUR-mDeuy-45">
          <mxGeometry relative="1" as="geometry" />
        </mxCell>
        <mxCell id="r0wQkKcDz_AkUR-mDeuy-43" value="Regional Manager Approval" style="shape=step;perimeter=stepPerimeter;whiteSpace=wrap;html=1;fixedSize=1;rounded=0;sketch=0;" vertex="1" parent="1">
          <mxGeometry x="-330" y="720" width="130" height="80" as="geometry" />
        </mxCell>
        <mxCell id="r0wQkKcDz_AkUR-mDeuy-44" style="edgeStyle=orthogonalEdgeStyle;curved=0;rounded=1;sketch=0;orthogonalLoop=1;jettySize=auto;html=1;exitX=1;exitY=0.5;exitDx=0;exitDy=0;entryX=0;entryY=0.5;entryDx=0;entryDy=0;" edge="1" parent="1" source="r0wQkKcDz_AkUR-mDeuy-45" target="r0wQkKcDz_AkUR-mDeuy-47">
          <mxGeometry relative="1" as="geometry" />
        </mxCell>
        <mxCell id="r0wQkKcDz_AkUR-mDeuy-45" value="&amp;nbsp; &amp;nbsp; &amp;nbsp;Level 1" style="shape=step;perimeter=stepPerimeter;whiteSpace=wrap;html=1;fixedSize=1;rounded=0;sketch=0;" vertex="1" parent="1">
          <mxGeometry x="-190" y="720" width="130" height="80" as="geometry" />
        </mxCell>
        <mxCell id="r0wQkKcDz_AkUR-mDeuy-46" style="edgeStyle=orthogonalEdgeStyle;curved=0;rounded=1;sketch=0;orthogonalLoop=1;jettySize=auto;html=1;exitX=1;exitY=0.5;exitDx=0;exitDy=0;" edge="1" parent="1" source="r0wQkKcDz_AkUR-mDeuy-47" target="r0wQkKcDz_AkUR-mDeuy-49">
          <mxGeometry relative="1" as="geometry" />
        </mxCell>
        <mxCell id="r0wQkKcDz_AkUR-mDeuy-47" value="&amp;nbsp; &amp;nbsp; &amp;nbsp;Level 2" style="shape=step;perimeter=stepPerimeter;whiteSpace=wrap;html=1;fixedSize=1;rounded=0;sketch=0;" vertex="1" parent="1">
          <mxGeometry x="-45" y="720" width="130" height="80" as="geometry" />
        </mxCell>
        <mxCell id="r0wQkKcDz_AkUR-mDeuy-48" style="edgeStyle=orthogonalEdgeStyle;curved=0;rounded=1;sketch=0;orthogonalLoop=1;jettySize=auto;html=1;exitX=1;exitY=0.5;exitDx=0;exitDy=0;" edge="1" parent="1" source="r0wQkKcDz_AkUR-mDeuy-49" target="r0wQkKcDz_AkUR-mDeuy-51">
          <mxGeometry relative="1" as="geometry" />
        </mxCell>
        <mxCell id="r0wQkKcDz_AkUR-mDeuy-49" value="&amp;nbsp; &amp;nbsp; &amp;nbsp;Level 3" style="shape=step;perimeter=stepPerimeter;whiteSpace=wrap;html=1;fixedSize=1;rounded=0;sketch=0;" vertex="1" parent="1">
          <mxGeometry x="90" y="720" width="130" height="80" as="geometry" />
        </mxCell>
        <mxCell id="r0wQkKcDz_AkUR-mDeuy-50" style="edgeStyle=orthogonalEdgeStyle;curved=0;rounded=1;sketch=0;orthogonalLoop=1;jettySize=auto;html=1;exitX=1;exitY=0.5;exitDx=0;exitDy=0;entryX=0;entryY=0.5;entryDx=0;entryDy=0;entryPerimeter=0;" edge="1" parent="1" source="r0wQkKcDz_AkUR-mDeuy-51" target="r0wQkKcDz_AkUR-mDeuy-39">
          <mxGeometry relative="1" as="geometry" />
        </mxCell>
        <mxCell id="r0wQkKcDz_AkUR-mDeuy-51" value="&amp;nbsp; &amp;nbsp; &amp;nbsp;Level 4&lt;br&gt;&amp;nbsp; &amp;nbsp;FN &amp;amp; GM" style="shape=step;perimeter=stepPerimeter;whiteSpace=wrap;html=1;fixedSize=1;rounded=0;sketch=0;" vertex="1" parent="1">
          <mxGeometry x="240" y="720" width="130" height="80" as="geometry" />
        </mxCell>
        <mxCell id="r0wQkKcDz_AkUR-mDeuy-99" style="edgeStyle=orthogonalEdgeStyle;curved=0;rounded=1;sketch=0;orthogonalLoop=1;jettySize=auto;html=1;exitX=1;exitY=0.5;exitDx=0;exitDy=0;entryX=0.414;entryY=-0.046;entryDx=0;entryDy=0;entryPerimeter=0;" edge="1" parent="1" source="r0wQkKcDz_AkUR-mDeuy-57" target="r0wQkKcDz_AkUR-mDeuy-103">
          <mxGeometry relative="1" as="geometry">
            <mxPoint x="760" y="910" as="targetPoint" />
            <Array as="points">
              <mxPoint x="2210" y="330" />
              <mxPoint x="2210" y="690" />
              <mxPoint x="700" y="690" />
              <mxPoint x="700" y="940" />
              <mxPoint x="705" y="940" />
            </Array>
          </mxGeometry>
        </mxCell>
        <mxCell id="r0wQkKcDz_AkUR-mDeuy-125" value="NA AVCS" style="edgeLabel;html=1;align=center;verticalAlign=middle;resizable=0;points=[];" vertex="1" connectable="0" parent="r0wQkKcDz_AkUR-mDeuy-99">
          <mxGeometry x="0.7305" y="-1" relative="1" as="geometry">
            <mxPoint as="offset" />
          </mxGeometry>
        </mxCell>
        <mxCell id="r0wQkKcDz_AkUR-mDeuy-100" style="edgeStyle=orthogonalEdgeStyle;curved=0;rounded=1;sketch=0;orthogonalLoop=1;jettySize=auto;html=1;exitX=0;exitY=0.5;exitDx=0;exitDy=0;" edge="1" parent="1" source="r0wQkKcDz_AkUR-mDeuy-57">
          <mxGeometry relative="1" as="geometry">
            <mxPoint x="770" y="480" as="targetPoint" />
            <Array as="points">
              <mxPoint x="770" y="330" />
              <mxPoint x="770" y="450" />
            </Array>
          </mxGeometry>
        </mxCell>
        <mxCell id="r0wQkKcDz_AkUR-mDeuy-124" value="Intl. ACVS" style="edgeLabel;html=1;align=center;verticalAlign=middle;resizable=0;points=[];" vertex="1" connectable="0" parent="r0wQkKcDz_AkUR-mDeuy-100">
          <mxGeometry x="-0.0064" y="1" relative="1" as="geometry">
            <mxPoint as="offset" />
          </mxGeometry>
        </mxCell>
        <mxCell id="r0wQkKcDz_AkUR-mDeuy-57" value="Intl ACVS| NA ACVS&amp;nbsp;" style="rhombus;whiteSpace=wrap;html=1;rounded=0;shadow=1;labelBackgroundColor=none;strokeWidth=1;fontFamily=Verdana;fontSize=8;align=center;" vertex="1" parent="1">
          <mxGeometry x="990" y="300" width="100" height="60" as="geometry" />
        </mxCell>
        <mxCell id="r0wQkKcDz_AkUR-mDeuy-66" style="edgeStyle=orthogonalEdgeStyle;curved=0;rounded=1;sketch=0;orthogonalLoop=1;jettySize=auto;html=1;entryX=0;entryY=0.5;entryDx=0;entryDy=0;" edge="1" parent="1" source="r0wQkKcDz_AkUR-mDeuy-63" target="r0wQkKcDz_AkUR-mDeuy-65">
          <mxGeometry relative="1" as="geometry" />
        </mxCell>
        <mxCell id="r0wQkKcDz_AkUR-mDeuy-63" value="American Dynamics &lt;br&gt;Level 1/ &lt;br&gt;Regional&lt;br&gt;&amp;nbsp;Sales Manager" style="shape=step;perimeter=stepPerimeter;whiteSpace=wrap;html=1;fixedSize=1;rounded=0;sketch=0;" vertex="1" parent="1">
          <mxGeometry x="900" y="940" width="140" height="80" as="geometry" />
        </mxCell>
        <mxCell id="r0wQkKcDz_AkUR-mDeuy-69" style="edgeStyle=orthogonalEdgeStyle;curved=0;rounded=1;sketch=0;orthogonalLoop=1;jettySize=auto;html=1;exitX=1;exitY=0.5;exitDx=0;exitDy=0;entryX=0;entryY=0.5;entryDx=0;entryDy=0;" edge="1" parent="1" source="r0wQkKcDz_AkUR-mDeuy-65" target="r0wQkKcDz_AkUR-mDeuy-67">
          <mxGeometry relative="1" as="geometry" />
        </mxCell>
        <mxCell id="r0wQkKcDz_AkUR-mDeuy-65" value="&amp;nbsp; &amp;nbsp; &amp;nbsp;American&amp;nbsp; &amp;nbsp; &amp;nbsp; &lt;br&gt;&amp;nbsp;Dynamics &lt;br&gt;Level 2" style="shape=step;perimeter=stepPerimeter;whiteSpace=wrap;html=1;fixedSize=1;rounded=0;sketch=0;" vertex="1" parent="1">
          <mxGeometry x="1050" y="940" width="120" height="80" as="geometry" />
        </mxCell>
        <mxCell id="r0wQkKcDz_AkUR-mDeuy-70" style="edgeStyle=orthogonalEdgeStyle;curved=0;rounded=1;sketch=0;orthogonalLoop=1;jettySize=auto;html=1;exitX=1;exitY=0.5;exitDx=0;exitDy=0;" edge="1" parent="1" source="r0wQkKcDz_AkUR-mDeuy-67" target="r0wQkKcDz_AkUR-mDeuy-68">
          <mxGeometry relative="1" as="geometry" />
        </mxCell>
        <mxCell id="r0wQkKcDz_AkUR-mDeuy-67" value="Kantech&lt;br&gt;Level 1&amp;nbsp; Regional Sales Manager" style="shape=step;perimeter=stepPerimeter;whiteSpace=wrap;html=1;fixedSize=1;rounded=0;sketch=0;" vertex="1" parent="1">
          <mxGeometry x="1180" y="940" width="120" height="80" as="geometry" />
        </mxCell>
        <mxCell id="r0wQkKcDz_AkUR-mDeuy-73" style="edgeStyle=orthogonalEdgeStyle;curved=0;rounded=1;sketch=0;orthogonalLoop=1;jettySize=auto;html=1;exitX=1;exitY=0.5;exitDx=0;exitDy=0;entryX=0;entryY=0.5;entryDx=0;entryDy=0;" edge="1" parent="1" source="r0wQkKcDz_AkUR-mDeuy-68" target="r0wQkKcDz_AkUR-mDeuy-71">
          <mxGeometry relative="1" as="geometry" />
        </mxCell>
        <mxCell id="r0wQkKcDz_AkUR-mDeuy-68" value="&amp;nbsp;Kantech&lt;br&gt;Level 2" style="shape=step;perimeter=stepPerimeter;whiteSpace=wrap;html=1;fixedSize=1;rounded=0;sketch=0;" vertex="1" parent="1">
          <mxGeometry x="1320" y="940" width="120" height="80" as="geometry" />
        </mxCell>
        <mxCell id="r0wQkKcDz_AkUR-mDeuy-74" style="edgeStyle=orthogonalEdgeStyle;curved=0;rounded=1;sketch=0;orthogonalLoop=1;jettySize=auto;html=1;exitX=1;exitY=0.5;exitDx=0;exitDy=0;entryX=0;entryY=0.5;entryDx=0;entryDy=0;" edge="1" parent="1" source="r0wQkKcDz_AkUR-mDeuy-71" target="r0wQkKcDz_AkUR-mDeuy-72">
          <mxGeometry relative="1" as="geometry" />
        </mxCell>
        <mxCell id="r0wQkKcDz_AkUR-mDeuy-71" value="SWH&lt;br&gt;Level 1&lt;br&gt;/ Regional Sales Manager" style="shape=step;perimeter=stepPerimeter;whiteSpace=wrap;html=1;fixedSize=1;rounded=0;sketch=0;" vertex="1" parent="1">
          <mxGeometry x="1460" y="940" width="120" height="80" as="geometry" />
        </mxCell>
        <mxCell id="r0wQkKcDz_AkUR-mDeuy-79" style="edgeStyle=orthogonalEdgeStyle;curved=0;rounded=1;sketch=0;orthogonalLoop=1;jettySize=auto;html=1;exitX=1;exitY=0.5;exitDx=0;exitDy=0;entryX=0;entryY=0.5;entryDx=0;entryDy=0;" edge="1" parent="1" source="r0wQkKcDz_AkUR-mDeuy-72" target="r0wQkKcDz_AkUR-mDeuy-75">
          <mxGeometry relative="1" as="geometry" />
        </mxCell>
        <mxCell id="r0wQkKcDz_AkUR-mDeuy-72" value="SWH&lt;br&gt;Level 2" style="shape=step;perimeter=stepPerimeter;whiteSpace=wrap;html=1;fixedSize=1;rounded=0;sketch=0;" vertex="1" parent="1">
          <mxGeometry x="1600" y="940" width="120" height="80" as="geometry" />
        </mxCell>
        <mxCell id="r0wQkKcDz_AkUR-mDeuy-80" style="edgeStyle=orthogonalEdgeStyle;curved=0;rounded=1;sketch=0;orthogonalLoop=1;jettySize=auto;html=1;exitX=1;exitY=0.5;exitDx=0;exitDy=0;entryX=0;entryY=0.5;entryDx=0;entryDy=0;" edge="1" parent="1" source="r0wQkKcDz_AkUR-mDeuy-75" target="r0wQkKcDz_AkUR-mDeuy-76">
          <mxGeometry relative="1" as="geometry" />
        </mxCell>
        <mxCell id="r0wQkKcDz_AkUR-mDeuy-75" value="Level 3" style="shape=step;perimeter=stepPerimeter;whiteSpace=wrap;html=1;fixedSize=1;rounded=0;sketch=0;" vertex="1" parent="1">
          <mxGeometry x="1730" y="940" width="120" height="80" as="geometry" />
        </mxCell>
        <mxCell id="r0wQkKcDz_AkUR-mDeuy-81" style="edgeStyle=orthogonalEdgeStyle;curved=0;rounded=1;sketch=0;orthogonalLoop=1;jettySize=auto;html=1;exitX=1;exitY=0.5;exitDx=0;exitDy=0;" edge="1" parent="1" source="r0wQkKcDz_AkUR-mDeuy-76" target="r0wQkKcDz_AkUR-mDeuy-77">
          <mxGeometry relative="1" as="geometry" />
        </mxCell>
        <mxCell id="r0wQkKcDz_AkUR-mDeuy-76" value="Level 4" style="shape=step;perimeter=stepPerimeter;whiteSpace=wrap;html=1;fixedSize=1;rounded=0;sketch=0;" vertex="1" parent="1">
          <mxGeometry x="1860" y="940" width="120" height="80" as="geometry" />
        </mxCell>
        <mxCell id="r0wQkKcDz_AkUR-mDeuy-82" style="edgeStyle=orthogonalEdgeStyle;curved=0;rounded=1;sketch=0;orthogonalLoop=1;jettySize=auto;html=1;exitX=1;exitY=0.5;exitDx=0;exitDy=0;entryX=0;entryY=0.5;entryDx=0;entryDy=0;" edge="1" parent="1" source="r0wQkKcDz_AkUR-mDeuy-77" target="r0wQkKcDz_AkUR-mDeuy-78">
          <mxGeometry relative="1" as="geometry" />
        </mxCell>
        <mxCell id="r0wQkKcDz_AkUR-mDeuy-77" value="Level 5" style="shape=step;perimeter=stepPerimeter;whiteSpace=wrap;html=1;fixedSize=1;rounded=0;sketch=0;" vertex="1" parent="1">
          <mxGeometry x="2000" y="940" width="120" height="80" as="geometry" />
        </mxCell>
        <mxCell id="r0wQkKcDz_AkUR-mDeuy-110" style="edgeStyle=orthogonalEdgeStyle;curved=0;rounded=1;sketch=0;orthogonalLoop=1;jettySize=auto;html=1;exitX=1;exitY=0.5;exitDx=0;exitDy=0;entryX=0;entryY=0.5;entryDx=0;entryDy=0;entryPerimeter=0;" edge="1" parent="1" source="r0wQkKcDz_AkUR-mDeuy-78" target="r0wQkKcDz_AkUR-mDeuy-109">
          <mxGeometry relative="1" as="geometry" />
        </mxCell>
        <mxCell id="r0wQkKcDz_AkUR-mDeuy-78" value="Level 6" style="shape=step;perimeter=stepPerimeter;whiteSpace=wrap;html=1;fixedSize=1;rounded=0;sketch=0;" vertex="1" parent="1">
          <mxGeometry x="2140" y="940" width="120" height="80" as="geometry" />
        </mxCell>
        <mxCell id="r0wQkKcDz_AkUR-mDeuy-87" style="edgeStyle=orthogonalEdgeStyle;curved=0;rounded=1;sketch=0;orthogonalLoop=1;jettySize=auto;html=1;exitX=1;exitY=0.5;exitDx=0;exitDy=0;entryX=0;entryY=0.5;entryDx=0;entryDy=0;" edge="1" parent="1" source="r0wQkKcDz_AkUR-mDeuy-84" target="r0wQkKcDz_AkUR-mDeuy-85">
          <mxGeometry relative="1" as="geometry" />
        </mxCell>
        <mxCell id="r0wQkKcDz_AkUR-mDeuy-84" value="American &lt;br&gt;Dynamics &lt;br&gt;Level 1/&lt;br&gt;Regional Sales Manager" style="shape=step;perimeter=stepPerimeter;whiteSpace=wrap;html=1;fixedSize=1;rounded=0;sketch=0;" vertex="1" parent="1">
          <mxGeometry x="1030" y="470" width="120" height="80" as="geometry" />
        </mxCell>
        <mxCell id="r0wQkKcDz_AkUR-mDeuy-88" style="edgeStyle=orthogonalEdgeStyle;curved=0;rounded=1;sketch=0;orthogonalLoop=1;jettySize=auto;html=1;exitX=1;exitY=0.5;exitDx=0;exitDy=0;" edge="1" parent="1" source="r0wQkKcDz_AkUR-mDeuy-85" target="r0wQkKcDz_AkUR-mDeuy-86">
          <mxGeometry relative="1" as="geometry" />
        </mxCell>
        <mxCell id="r0wQkKcDz_AkUR-mDeuy-85" value="Kantech&lt;br&gt;Level 1 /&lt;br&gt;Regional Sales Manager" style="shape=step;perimeter=stepPerimeter;whiteSpace=wrap;html=1;fixedSize=1;rounded=0;sketch=0;" vertex="1" parent="1">
          <mxGeometry x="1170" y="470" width="120" height="80" as="geometry" />
        </mxCell>
        <mxCell id="r0wQkKcDz_AkUR-mDeuy-94" style="edgeStyle=orthogonalEdgeStyle;curved=0;rounded=1;sketch=0;orthogonalLoop=1;jettySize=auto;html=1;exitX=1;exitY=0.5;exitDx=0;exitDy=0;entryX=0.117;entryY=0.488;entryDx=0;entryDy=0;entryPerimeter=0;" edge="1" parent="1" source="r0wQkKcDz_AkUR-mDeuy-86" target="r0wQkKcDz_AkUR-mDeuy-93">
          <mxGeometry relative="1" as="geometry" />
        </mxCell>
        <mxCell id="r0wQkKcDz_AkUR-mDeuy-86" value="SWH&lt;br&gt;Level 1 /&lt;br&gt;Regional Sales Manager" style="shape=step;perimeter=stepPerimeter;whiteSpace=wrap;html=1;fixedSize=1;rounded=0;sketch=0;" vertex="1" parent="1">
          <mxGeometry x="1310" y="470" width="120" height="80" as="geometry" />
        </mxCell>
        <mxCell id="r0wQkKcDz_AkUR-mDeuy-96" style="edgeStyle=orthogonalEdgeStyle;curved=0;rounded=1;sketch=0;orthogonalLoop=1;jettySize=auto;html=1;exitX=1;exitY=0.5;exitDx=0;exitDy=0;" edge="1" parent="1" source="r0wQkKcDz_AkUR-mDeuy-89" target="r0wQkKcDz_AkUR-mDeuy-90">
          <mxGeometry relative="1" as="geometry" />
        </mxCell>
        <mxCell id="r0wQkKcDz_AkUR-mDeuy-89" value="Level 3" style="shape=step;perimeter=stepPerimeter;whiteSpace=wrap;html=1;fixedSize=1;rounded=0;sketch=0;" vertex="1" parent="1">
          <mxGeometry x="1590" y="470" width="120" height="80" as="geometry" />
        </mxCell>
        <mxCell id="r0wQkKcDz_AkUR-mDeuy-97" style="edgeStyle=orthogonalEdgeStyle;curved=0;rounded=1;sketch=0;orthogonalLoop=1;jettySize=auto;html=1;exitX=1;exitY=0.5;exitDx=0;exitDy=0;entryX=0;entryY=0.5;entryDx=0;entryDy=0;" edge="1" parent="1" source="r0wQkKcDz_AkUR-mDeuy-90" target="r0wQkKcDz_AkUR-mDeuy-91">
          <mxGeometry relative="1" as="geometry" />
        </mxCell>
        <mxCell id="r0wQkKcDz_AkUR-mDeuy-90" value="Level 4" style="shape=step;perimeter=stepPerimeter;whiteSpace=wrap;html=1;fixedSize=1;rounded=0;sketch=0;" vertex="1" parent="1">
          <mxGeometry x="1740" y="470" width="120" height="80" as="geometry" />
        </mxCell>
        <mxCell id="r0wQkKcDz_AkUR-mDeuy-91" value="Level 5" style="shape=step;perimeter=stepPerimeter;whiteSpace=wrap;html=1;fixedSize=1;rounded=0;sketch=0;" vertex="1" parent="1">
          <mxGeometry x="1880" y="470" width="120" height="80" as="geometry" />
        </mxCell>
        <mxCell id="r0wQkKcDz_AkUR-mDeuy-95" style="edgeStyle=orthogonalEdgeStyle;curved=0;rounded=1;sketch=0;orthogonalLoop=1;jettySize=auto;html=1;exitX=1;exitY=0.5;exitDx=0;exitDy=0;entryX=0;entryY=0.5;entryDx=0;entryDy=0;" edge="1" parent="1" source="r0wQkKcDz_AkUR-mDeuy-93" target="r0wQkKcDz_AkUR-mDeuy-89">
          <mxGeometry relative="1" as="geometry" />
        </mxCell>
        <mxCell id="r0wQkKcDz_AkUR-mDeuy-93" value="Level 2" style="shape=step;perimeter=stepPerimeter;whiteSpace=wrap;html=1;fixedSize=1;rounded=0;sketch=0;" vertex="1" parent="1">
          <mxGeometry x="1450" y="470" width="120" height="80" as="geometry" />
        </mxCell>
        <mxCell id="r0wQkKcDz_AkUR-mDeuy-102" style="edgeStyle=orthogonalEdgeStyle;curved=0;rounded=1;sketch=0;orthogonalLoop=1;jettySize=auto;html=1;entryX=0;entryY=0.5;entryDx=0;entryDy=0;" edge="1" parent="1" source="r0wQkKcDz_AkUR-mDeuy-101" target="r0wQkKcDz_AkUR-mDeuy-84">
          <mxGeometry relative="1" as="geometry" />
        </mxCell>
        <mxCell id="r0wQkKcDz_AkUR-mDeuy-101" value="One Time Contract -&amp;nbsp; Threshold $&lt;br&gt;long term Contract - Additional Discount %" style="shape=ext;double=1;rounded=1;whiteSpace=wrap;html=1;sketch=0;" vertex="1" parent="1">
          <mxGeometry x="770" y="470" width="240" height="80" as="geometry" />
        </mxCell>
        <mxCell id="r0wQkKcDz_AkUR-mDeuy-104" style="edgeStyle=orthogonalEdgeStyle;curved=0;rounded=1;sketch=0;orthogonalLoop=1;jettySize=auto;html=1;exitX=1;exitY=0.5;exitDx=0;exitDy=0;entryX=0;entryY=0.5;entryDx=0;entryDy=0;" edge="1" parent="1" source="r0wQkKcDz_AkUR-mDeuy-103" target="r0wQkKcDz_AkUR-mDeuy-63">
          <mxGeometry relative="1" as="geometry" />
        </mxCell>
        <mxCell id="r0wQkKcDz_AkUR-mDeuy-103" value="&lt;span&gt;One Time Contract -&amp;nbsp; Threshold $&lt;/span&gt;&lt;br&gt;long term Contract -&amp;nbsp; discount of MSRP %" style="shape=ext;double=1;rounded=1;whiteSpace=wrap;html=1;sketch=0;" vertex="1" parent="1">
          <mxGeometry x="610" y="940" width="230" height="80" as="geometry" />
        </mxCell>
        <mxCell id="r0wQkKcDz_AkUR-mDeuy-107" value="End" style="strokeWidth=1;html=1;shape=mxgraph.flowchart.terminator;whiteSpace=wrap;rounded=0;shadow=1;labelBackgroundColor=none;fontFamily=Verdana;fontSize=8;align=center;" vertex="1" parent="1">
          <mxGeometry x="2130" y="495" width="60" height="30" as="geometry" />
        </mxCell>
        <mxCell id="r0wQkKcDz_AkUR-mDeuy-108" style="edgeStyle=orthogonalEdgeStyle;curved=0;rounded=1;sketch=0;orthogonalLoop=1;jettySize=auto;html=1;entryX=0;entryY=0.5;entryDx=0;entryDy=0;entryPerimeter=0;exitX=1;exitY=0.5;exitDx=0;exitDy=0;" edge="1" parent="1" target="r0wQkKcDz_AkUR-mDeuy-107" source="r0wQkKcDz_AkUR-mDeuy-91">
          <mxGeometry relative="1" as="geometry">
            <mxPoint x="2010" y="505" as="sourcePoint" />
            <Array as="points">
              <mxPoint x="2070" y="510" />
              <mxPoint x="2070" y="510" />
            </Array>
          </mxGeometry>
        </mxCell>
        <mxCell id="r0wQkKcDz_AkUR-mDeuy-109" value="End" style="strokeWidth=1;html=1;shape=mxgraph.flowchart.terminator;whiteSpace=wrap;rounded=0;shadow=1;labelBackgroundColor=none;fontFamily=Verdana;fontSize=8;align=center;" vertex="1" parent="1">
          <mxGeometry x="2330" y="965" width="60" height="30" as="geometry" />
        </mxCell>
        <mxCell id="r0wQkKcDz_AkUR-mDeuy-111" value="&lt;font style=&quot;font-size: 14px&quot;&gt;DSC, Visonic, Bentel, Sur-Gard Brands Approval&lt;/font&gt;" style="text;html=1;strokeColor=none;fillColor=none;align=center;verticalAlign=middle;whiteSpace=wrap;rounded=0;sketch=0;" vertex="1" parent="1">
          <mxGeometry x="-280" y="610" width="600" height="20" as="geometry" />
        </mxCell>
        <mxCell id="r0wQkKcDz_AkUR-mDeuy-112" value="&lt;font style=&quot;font-size: 9px&quot;&gt;Review level&amp;nbsp;&lt;/font&gt;" style="whiteSpace=wrap;html=1;align=center;verticalAlign=middle;treeFolding=1;treeMoving=1;newEdgeStyle={&quot;edgeStyle&quot;:&quot;elbowEdgeStyle&quot;,&quot;startArrow&quot;:&quot;none&quot;,&quot;endArrow&quot;:&quot;none&quot;};rounded=0;sketch=0;" vertex="1" parent="1">
          <mxGeometry x="-440" y="520" width="100" height="60" as="geometry" />
        </mxCell>
        <mxCell id="r0wQkKcDz_AkUR-mDeuy-113" value="" style="edgeStyle=elbowEdgeStyle;elbow=vertical;startArrow=none;endArrow=none;rounded=0;html=1;" edge="1" target="r0wQkKcDz_AkUR-mDeuy-112" parent="1" source="r0wQkKcDz_AkUR-mDeuy-16">
          <mxGeometry relative="1" as="geometry">
            <mxPoint x="-440" y="535" as="sourcePoint" />
            <Array as="points">
              <mxPoint x="-390" y="527" />
            </Array>
          </mxGeometry>
        </mxCell>
        <mxCell id="r0wQkKcDz_AkUR-mDeuy-114" value="&lt;font style=&quot;font-size: 9px&quot;&gt;Review level&amp;nbsp;&lt;/font&gt;" style="whiteSpace=wrap;html=1;align=center;verticalAlign=middle;treeFolding=1;treeMoving=1;newEdgeStyle={&quot;edgeStyle&quot;:&quot;elbowEdgeStyle&quot;,&quot;startArrow&quot;:&quot;none&quot;,&quot;endArrow&quot;:&quot;none&quot;};rounded=0;sketch=0;" vertex="1" parent="1">
          <mxGeometry x="-305" y="520" width="100" height="60" as="geometry" />
        </mxCell>
        <mxCell id="r0wQkKcDz_AkUR-mDeuy-116" value="&lt;font&gt;&lt;font style=&quot;font-size: 10px&quot;&gt;Visonic, Bentel - Geography, Region&lt;br&gt;&lt;/font&gt;&lt;font size=&quot;1&quot;&gt;DSC: Line of Business ,&lt;/font&gt;&lt;/font&gt;&lt;span style=&quot;font-size: 10px&quot;&gt;Geography&lt;br&gt;&lt;/span&gt;&lt;span style=&quot;font-size: 10px&quot;&gt;Sur-Gard: Geography&lt;/span&gt;&lt;span style=&quot;font-size: 10px&quot;&gt;&lt;br&gt;&lt;/span&gt;" style="whiteSpace=wrap;html=1;align=center;verticalAlign=middle;treeFolding=1;treeMoving=1;newEdgeStyle={&quot;edgeStyle&quot;:&quot;elbowEdgeStyle&quot;,&quot;startArrow&quot;:&quot;none&quot;,&quot;endArrow&quot;:&quot;none&quot;};rounded=0;sketch=0;" vertex="1" parent="1">
          <mxGeometry x="-175" y="520" width="555" height="60" as="geometry" />
        </mxCell>
        <mxCell id="r0wQkKcDz_AkUR-mDeuy-118" value="&lt;font&gt;&lt;font style=&quot;font-size: 10px&quot;&gt;Visonic, Bentel - Geography, Region&lt;br&gt;&lt;/font&gt;&lt;font size=&quot;1&quot;&gt;DSC: Line of Business ,&lt;/font&gt;&lt;/font&gt;&lt;span style=&quot;font-size: 10px&quot;&gt;Geography&lt;br&gt;&lt;/span&gt;&lt;span style=&quot;font-size: 10px&quot;&gt;Sur-Gard: Geography&lt;/span&gt;&lt;span style=&quot;font-size: 10px&quot;&gt;&lt;br&gt;&lt;/span&gt;" style="whiteSpace=wrap;html=1;align=center;verticalAlign=middle;treeFolding=1;treeMoving=1;newEdgeStyle={&quot;edgeStyle&quot;:&quot;elbowEdgeStyle&quot;,&quot;startArrow&quot;:&quot;none&quot;,&quot;endArrow&quot;:&quot;none&quot;};rounded=0;sketch=0;" vertex="1" parent="1">
          <mxGeometry x="-190" y="840" width="555" height="60" as="geometry" />
        </mxCell>
        <mxCell id="r0wQkKcDz_AkUR-mDeuy-119" value="" style="edgeStyle=elbowEdgeStyle;elbow=vertical;startArrow=none;endArrow=none;rounded=0;html=1;" edge="1" parent="1">
          <mxGeometry relative="1" as="geometry">
            <mxPoint x="-255.24" y="480" as="sourcePoint" />
            <mxPoint x="-255.24" y="520" as="targetPoint" />
            <Array as="points" />
          </mxGeometry>
        </mxCell>
        <mxCell id="r0wQkKcDz_AkUR-mDeuy-120" value="&lt;font style=&quot;font-size: 9px&quot;&gt;Review level&amp;nbsp;&lt;/font&gt;" style="whiteSpace=wrap;html=1;align=center;verticalAlign=middle;treeFolding=1;treeMoving=1;newEdgeStyle={&quot;edgeStyle&quot;:&quot;elbowEdgeStyle&quot;,&quot;startArrow&quot;:&quot;none&quot;,&quot;endArrow&quot;:&quot;none&quot;};rounded=0;sketch=0;" vertex="1" parent="1">
          <mxGeometry x="-450" y="840" width="100" height="60" as="geometry" />
        </mxCell>
        <mxCell id="r0wQkKcDz_AkUR-mDeuy-121" value="" style="edgeStyle=elbowEdgeStyle;elbow=vertical;startArrow=none;endArrow=none;rounded=0;html=1;" edge="1" parent="1" target="r0wQkKcDz_AkUR-mDeuy-120">
          <mxGeometry relative="1" as="geometry">
            <mxPoint x="-400" y="800" as="sourcePoint" />
            <Array as="points">
              <mxPoint x="-400" y="847" />
            </Array>
          </mxGeometry>
        </mxCell>
        <mxCell id="r0wQkKcDz_AkUR-mDeuy-122" value="&lt;font style=&quot;font-size: 9px&quot;&gt;Review level&amp;nbsp;&lt;/font&gt;" style="whiteSpace=wrap;html=1;align=center;verticalAlign=middle;treeFolding=1;treeMoving=1;newEdgeStyle={&quot;edgeStyle&quot;:&quot;elbowEdgeStyle&quot;,&quot;startArrow&quot;:&quot;none&quot;,&quot;endArrow&quot;:&quot;none&quot;};rounded=0;sketch=0;" vertex="1" parent="1">
          <mxGeometry x="-315" y="840" width="100" height="60" as="geometry" />
        </mxCell>
        <mxCell id="r0wQkKcDz_AkUR-mDeuy-123" value="" style="edgeStyle=elbowEdgeStyle;elbow=vertical;startArrow=none;endArrow=none;rounded=0;html=1;" edge="1" parent="1">
          <mxGeometry relative="1" as="geometry">
            <mxPoint x="-265.24" y="800" as="sourcePoint" />
            <mxPoint x="-265.24" y="840" as="targetPoint" />
            <Array as="points" />
          </mxGeometry>
        </mxCell>
      </root>
    </mxGraphModel>
  </diagram>
</mxfile>
